<svg width="250" height="250" viewBox="0 0 250 250" fill="none" xmlns="http://www.w3.org/2000/svg">
<rect width="250" height="250" rx="12" fill="#008C1C"/>
<path d="M192.243 59.8063C193.618 61.0109 194.933 62.2724 196.251 63.5356C196.916 64.0948 197.584 64.6497 198.257 65.1988C214.769 79.2668 224.022 100.81 227.375 121.511C227.441 121.918 227.508 122.324 227.576 122.743C230.542 142.119 228.173 170.988 216.365 187.237C216.147 187.502 215.928 187.768 215.703 188.041C215.246 187.823 215.246 187.823 214.78 187.6C208.358 184.543 201.907 181.582 195.352 178.806C193.025 177.82 190.721 176.828 188.47 175.685C189.216 173.73 190.145 171.882 191.085 170.012C196.604 158.964 200.681 147.168 201.601 134.817C201.633 134.395 201.664 133.972 201.697 133.536C203.179 112.26 198.182 89.6017 183.727 73.0113C182.452 71.6187 181.141 70.27 179.799 68.9393C178.744 67.8125 178.744 67.8125 178.744 66.8621C178.346 66.6985 178.346 66.6985 177.939 66.5316C176.771 65.8964 175.861 65.1361 174.876 64.2593C160.049 51.1485 139.009 45.6215 119.374 46.348C113.148 46.6997 107.277 48.2 101.422 50.2297C100.829 50.4288 100.235 50.6279 99.6235 50.833C80.0152 57.8988 65.2336 74.8139 56.5478 92.8761C47.0603 113.499 45.0372 136.722 53.1681 158.079C55.0667 162.8 57.4862 167.206 60.1333 171.563C60.5731 172.359 60.5731 172.359 61.0594 173.784C60.6071 173.988 60.6071 173.988 60.1457 174.195C51.0279 178.292 41.9368 182.444 32.8539 186.615C31.3532 185.245 30.6138 183.746 29.8145 181.922C29.6682 181.59 29.522 181.257 29.3712 180.914C23.7987 167.934 20.9651 154.401 21.0003 140.342C21.0008 139.924 21.0012 139.507 21.0016 139.078C21.025 132.125 21.4883 125.449 23.1279 118.66C23.2453 118.17 23.3627 117.68 23.4836 117.176C26.5772 104.683 31.9457 92.5243 39.6622 82.0688C39.995 81.6137 40.3279 81.1585 40.6709 80.6896C47.1865 71.9906 54.6308 64.265 63.4909 57.8331C63.9511 57.4919 64.4112 57.1507 64.8853 56.7991C101.764 29.9014 156.783 29.9377 192.243 59.8063Z" fill="#00184A"/>
<path d="M75.6495 96.3262C78.5897 97.2037 81.2997 98.2619 84.0078 99.6823C84.5397 99.9598 84.5397 99.9598 85.0822 100.243C88.6412 102.144 91.8842 104.376 95.1016 106.781C95.5354 107.104 95.9692 107.426 96.4161 107.759C99.5239 110.132 102.412 112.727 105.314 115.335C111.639 120.976 117.909 126.491 126.857 126.393C135.565 125.773 142.64 118.112 148.686 112.543C154.472 107.386 166.972 96.3262 175.341 96.3262C175.084 106.455 168.392 114.801 161.275 121.572C159.696 122.966 158.033 124.255 156.376 125.559C139.572 139.157 136.386 154.982 133.246 175.389C130.412 193.788 130.412 193.788 127.198 201.823C124.025 201.589 124.025 201.589 122.991 200.512C122.304 199.398 121.994 198.519 121.708 197.253C121.603 196.791 121.499 196.328 121.391 195.852C121.281 195.333 121.171 194.814 121.058 194.279C120.937 193.722 120.816 193.165 120.691 192.591C119.09 185.031 117.896 177.39 116.662 169.767C114.357 155.689 111.716 140.873 100.937 130.541C100.601 130.196 100.265 129.852 99.919 129.496C97.8028 127.339 95.4968 125.482 93.1203 123.606C84.279 116.501 77.4375 108.652 75.6495 97.2766C75.6495 96.963 75.6495 96.6493 75.6495 96.3262Z" fill="#00184A"/>
<path d="M193.334 142.893C193.815 143.363 193.815 143.363 194.306 143.843C188.545 162.322 177.17 180.561 159.294 189.929C152.348 193.388 145.19 195.546 137.409 196.117C138.25 189.504 139.274 182.918 140.344 176.337C140.494 175.407 140.643 174.476 140.79 173.546C141 172.217 141.217 170.89 141.436 169.562C141.499 169.161 141.561 168.759 141.625 168.345C142.592 162.614 146.932 159.709 151.495 156.456C163.566 148.037 178.115 141.427 193.334 142.893Z" fill="white"/>
<path d="M79.557 145.86C87.8023 148.632 95.1326 153.03 101.885 158.375C103.324 159.529 103.324 159.529 104.776 160.428C107.408 162.277 108.455 163.958 109.02 167.011C109.122 167.63 109.122 167.63 109.225 168.262C109.303 168.698 109.381 169.135 109.462 169.584C109.709 170.983 109.944 172.383 110.177 173.784C110.334 174.701 110.491 175.618 110.648 176.535C111.036 178.819 111.41 181.105 111.778 183.392C112.005 184.803 112.235 186.213 112.466 187.623C112.612 188.526 112.759 189.428 112.905 190.331C112.973 190.75 113.041 191.168 113.112 191.6C113.174 191.986 113.236 192.372 113.299 192.77C113.354 193.109 113.409 193.447 113.465 193.795C113.581 194.693 113.581 194.693 113.581 196.119C100.205 195.576 88.2646 189.066 78.5673 180.437C78.0924 180.024 78.0924 180.024 77.608 179.602C67.9633 170.734 59.0572 156.105 56.6837 143.371C62.619 140.471 73.5981 143.966 79.557 145.86Z" fill="white"/>
<path d="M183.608 182.34C185.352 182.985 186.952 183.744 188.577 184.638C189.066 184.906 189.554 185.174 190.058 185.45C190.577 185.737 191.097 186.024 191.632 186.32C192.168 186.615 192.705 186.91 193.258 187.214C194.905 188.122 196.551 189.032 198.197 189.943C198.693 190.218 199.19 190.493 199.701 190.776C201.075 191.536 202.448 192.298 203.82 193.062C204.43 193.401 204.43 193.401 205.052 193.747C207.505 195.117 209.916 196.539 212.3 198.022C203.85 207.105 189.867 211.277 177.772 212.753C164.647 213.313 149.239 213.46 137.409 207.051C138.815 205.94 140.159 205.225 141.831 204.56C142.326 204.36 142.82 204.161 143.329 203.955C143.863 203.742 144.397 203.528 144.947 203.309C165.82 195.289 165.82 195.289 183.608 182.34Z" fill="white"/>
<path d="M66.4096 180.914C66.9652 181.457 67.519 182.002 68.0647 182.554C70.9233 185.264 74.2633 187.357 77.7161 189.26C78.1499 189.5 78.5837 189.74 79.0306 189.987C89.5241 195.692 100.498 200.328 111.636 204.675C111.636 205.145 111.636 205.616 111.636 206.1C92.2133 212.977 70.47 214.06 51.3247 205.753C46.4235 203.446 41.7902 200.609 37.7178 197.071C39.1224 195.581 40.495 194.622 42.3148 193.659C42.8418 193.378 43.3687 193.096 43.9116 192.806C44.4754 192.508 45.0393 192.21 45.6202 191.903C46.8035 191.272 47.9853 190.637 49.1668 190.002C49.4669 189.841 49.767 189.68 50.0763 189.515C54.6005 187.08 59.0432 184.506 63.4909 181.941C65.3031 180.914 65.3031 180.914 66.4096 180.914Z" fill="white"/>
<path d="M135.1 83.1544C138.502 85.419 140.732 88.646 141.785 92.5231C142.285 96.8224 142.289 101.154 139.839 104.879C139.584 105.321 139.584 105.321 139.323 105.771C137.211 109.089 133.632 111.182 129.842 112.257C124.955 113.182 120.672 112.366 116.373 109.97C112.971 107.706 110.742 104.479 109.689 100.602C109.188 96.3023 109.184 91.9712 111.634 88.2462C111.804 87.9515 111.975 87.6569 112.151 87.3533C114.262 84.0359 117.842 81.943 121.632 80.8674C126.518 79.943 130.801 80.7591 135.1 83.1544Z" fill="#00184A"/>
</svg>
