<svg width="112" height="95" viewBox="0 0 112 95" fill="none" xmlns="http://www.w3.org/2000/svg">
<path d="M91.8258 12.2294C92.5631 12.8754 93.2681 13.5518 93.9752 14.2292C94.3314 14.5291 94.6898 14.8266 95.0508 15.1211C103.905 22.6647 108.866 34.2171 110.664 45.3176C110.7 45.5355 110.736 45.7535 110.772 45.978C112.363 56.3682 111.092 71.8483 104.761 80.5618C104.644 80.704 104.527 80.8462 104.406 80.9927C104.161 80.8758 104.161 80.8758 103.911 80.7565C100.467 79.1171 97.008 77.5295 93.4929 76.0408C92.2453 75.5122 91.0097 74.9801 89.8028 74.3673C90.2024 73.3189 90.7008 72.3281 91.2047 71.3252C94.1643 65.4006 96.3505 59.0755 96.8436 52.4526C96.8607 52.2259 96.8778 51.9993 96.8954 51.7658C97.6899 40.3569 95.0103 28.2066 87.2593 19.3103C86.5756 18.5636 85.8724 17.8404 85.1528 17.1268C84.5874 16.5226 84.5874 16.5226 84.5874 16.013C84.3736 15.9253 84.3736 15.9253 84.1555 15.8358C83.5293 15.4952 83.041 15.0875 82.513 14.6173C74.5621 7.58688 63.2802 4.62313 52.751 5.01266C49.4128 5.20126 46.2643 6.00579 43.125 7.09417C42.8067 7.20092 42.4883 7.30768 42.1604 7.41767C31.6457 11.2066 23.7194 20.277 19.0618 29.9625C13.9743 41.0209 12.8895 53.4738 17.2495 64.9263C18.2676 67.4579 19.565 69.8202 20.9845 72.1566C21.2203 72.5836 21.2203 72.5836 21.4811 73.348C21.2386 73.457 21.2386 73.457 20.9911 73.5681C16.1019 75.7653 11.227 77.9917 6.35644 80.2283C5.55168 79.4936 5.1552 78.6898 4.72663 77.7119C4.64818 77.5334 4.56973 77.3549 4.48891 77.1709C1.50076 70.2107 -0.0187335 62.9542 0.000174307 55.4149C0.000402783 55.1913 0.000631259 54.9676 0.000866659 54.7372C0.0133834 51.0088 0.261841 47.4293 1.14104 43.7886C1.20399 43.526 1.26693 43.2633 1.33178 42.9927C2.99064 36.2935 5.86942 29.7739 10.0072 24.1673C10.1857 23.9232 10.3642 23.6792 10.5481 23.4277C14.042 18.763 18.0339 14.6203 22.785 11.1713C23.0317 10.9884 23.2784 10.8054 23.5326 10.6169C43.3082 -3.80651 72.8112 -3.78705 91.8258 12.2294Z" fill="white"/>
<path d="M29.3048 31.8126C30.8814 32.2831 32.3346 32.8506 33.7868 33.6122C34.072 33.761 34.072 33.761 34.3629 33.9128C36.2713 34.9324 38.0103 36.129 39.7356 37.4187C39.9683 37.5918 40.2009 37.7649 40.4405 37.9432C42.107 39.2158 43.6559 40.6072 45.2118 42.0055C48.6035 45.0308 51.9655 47.9881 56.7641 47.9351C61.4334 47.6026 65.2272 43.4947 68.4692 40.5084C71.5718 37.7433 78.2746 31.8126 82.7627 31.8126C82.6247 37.2441 79.036 41.7191 75.2197 45.35C74.3731 46.0978 73.4812 46.7887 72.5927 47.4881C63.5821 54.7798 61.8737 63.2657 60.1898 74.2087C58.6701 84.0747 58.6701 84.0747 56.9465 88.3832C55.2453 88.2577 55.2453 88.2577 54.6908 87.6803C54.3226 87.0828 54.156 86.6118 54.0026 85.9325C53.9466 85.6847 53.8906 85.4368 53.8329 85.1815C53.774 84.9031 53.715 84.6247 53.6542 84.3379C53.5894 84.0391 53.5245 83.7404 53.4577 83.4326C52.5988 79.379 51.9587 75.2814 51.297 71.1937C50.0609 63.6449 48.6446 55.6997 42.8649 50.1598C42.6847 49.9749 42.5045 49.7899 42.3189 49.5994C41.1841 48.4428 39.9475 47.4468 38.6732 46.441C33.9322 42.6308 30.2636 38.4219 29.3048 32.3222C29.3048 32.154 29.3048 31.9858 29.3048 31.8126Z" fill="white"/>
<path d="M92.4107 56.7839C92.6688 57.0362 92.6688 57.0362 92.9322 57.2935C89.843 67.2021 83.7432 76.9827 74.1573 82.0062C70.4327 83.8606 66.5944 85.0183 62.4221 85.324C62.873 81.778 63.4223 78.2464 63.9959 74.7176C64.0766 74.2189 64.1563 73.72 64.2351 73.2209C64.3479 72.5084 64.4643 71.7966 64.5816 71.0848C64.615 70.8695 64.6484 70.6541 64.6829 70.4322C65.2015 67.3591 67.5286 65.8012 69.9753 64.057C76.4483 59.5424 84.25 55.998 92.4107 56.7839Z" fill="#008C1C"/>
<path d="M31.4001 58.3741C35.8215 59.8607 39.7523 62.2188 43.3732 65.0851C44.1447 65.704 44.1446 65.704 44.9235 66.186C46.3349 67.1775 46.8961 68.0788 47.1993 69.7158C47.2537 70.0479 47.2537 70.0479 47.3091 70.3866C47.351 70.6207 47.3929 70.8547 47.436 71.0959C47.5687 71.8458 47.6946 72.5967 47.8195 73.3479C47.9036 73.8397 47.9878 74.3315 48.0722 74.8232C48.28 76.0479 48.4807 77.2736 48.6781 78.5C48.7999 79.2564 48.9233 80.0125 49.0469 80.7687C49.1255 81.2527 49.2039 81.7368 49.2822 82.2209C49.3189 82.4455 49.3556 82.67 49.3933 82.9013C49.4265 83.1085 49.4597 83.3156 49.4939 83.529C49.5231 83.7104 49.5524 83.8917 49.5826 84.0786C49.6449 84.5601 49.6449 84.5601 49.6449 85.3246C42.4724 85.0332 36.0694 81.5428 30.8694 76.9155C30.6148 76.6937 30.6148 76.6937 30.355 76.4675C25.1833 71.7124 20.4075 63.8678 19.1348 57.0393C22.3175 55.4842 28.2048 57.3584 31.4001 58.3741Z" fill="#008C1C"/>
<path d="M87.1953 77.9353C88.1307 78.2813 88.9888 78.6883 89.86 79.1676C90.1221 79.3113 90.3841 79.4551 90.6541 79.6032C90.9326 79.757 91.211 79.9109 91.498 80.0694C91.7857 80.2278 92.0734 80.3861 92.3699 80.5492C93.2533 81.0359 94.136 81.5239 95.0184 82.0125C95.2846 82.1597 95.5509 82.307 95.8252 82.4588C96.5618 82.8666 97.2978 83.2754 98.0335 83.6847C98.3608 83.8665 98.3608 83.8665 98.6946 84.0519C100.01 84.7866 101.303 85.5496 102.581 86.3444C98.0496 91.215 90.5517 93.4524 84.066 94.2439C77.0282 94.5443 68.7658 94.6231 62.4221 91.1861C63.1762 90.5902 63.8967 90.2071 64.7935 89.8503C65.0585 89.7433 65.3236 89.6364 65.5967 89.5262C65.8829 89.4117 66.1691 89.2973 66.4641 89.1794C77.6567 84.8792 77.6567 84.8792 87.1953 77.9353Z" fill="#008C1C"/>
<path d="M24.3501 77.1705C24.6481 77.4616 24.945 77.7538 25.2377 78.05C26.7706 79.5028 28.5615 80.6252 30.413 81.6458C30.6457 81.7744 30.8783 81.903 31.1179 82.0355C36.7449 85.0948 42.6292 87.5807 48.6017 89.9116C48.6017 90.1639 48.6017 90.4162 48.6017 90.6761C38.1869 94.3635 26.5275 94.9444 16.2612 90.4899C13.633 89.2525 11.1485 87.7313 8.96471 85.8344C9.71792 85.0354 10.454 84.5212 11.4298 84.0049C11.7124 83.8538 11.9949 83.7028 12.286 83.5471C12.5884 83.3875 12.8907 83.2278 13.2022 83.0632C13.8368 82.7246 14.4705 82.3844 15.104 82.044C15.2649 81.9576 15.4259 81.8713 15.5917 81.7823C18.0177 80.4767 20.4 79.0966 22.7851 77.7211C23.7568 77.1705 23.7568 77.1705 24.3501 77.1705Z" fill="#008C1C"/>
<path d="M61.1839 24.7492C63.0082 25.9636 64.2039 27.694 64.7685 29.773C65.037 32.0785 65.0391 34.401 63.7254 36.3984C63.5883 36.6354 63.5883 36.6354 63.4483 36.8772C62.316 38.6561 60.3966 39.7784 58.3643 40.3551C55.744 40.8509 53.4475 40.4132 51.1422 39.1288C49.318 37.9144 48.1223 36.1841 47.5577 34.105C47.2892 31.7996 47.287 29.4771 48.6008 27.4796C48.6922 27.3216 48.7836 27.1636 48.8778 27.0008C50.0102 25.2219 51.9296 24.0997 53.9618 23.5229C56.5822 23.0272 58.8787 23.4648 61.1839 24.7492Z" fill="white"/>
</svg>
