<svg width="261" height="221" viewBox="0 0 261 221" fill="none" xmlns="http://www.w3.org/2000/svg">
<path d="M215.026 28.6374C216.753 30.15 218.404 31.734 220.059 33.3202C220.894 34.0224 221.733 34.7192 222.578 35.4087C243.311 53.0734 254.93 80.1253 259.14 106.119C259.224 106.629 259.307 107.14 259.393 107.666C263.117 131.996 260.142 168.245 245.315 188.65C245.041 188.983 244.767 189.316 244.485 189.659C243.911 189.385 243.911 189.385 243.326 189.105C235.261 185.266 227.161 181.549 218.93 178.063C216.008 176.825 213.115 175.579 210.289 174.144C211.225 171.689 212.392 169.369 213.572 167.02C220.502 153.147 225.621 138.336 226.776 122.827C226.816 122.296 226.856 121.765 226.898 121.219C228.758 94.5027 222.483 66.0508 204.333 45.2186C202.732 43.4699 201.085 41.7764 199.4 40.1054C198.076 38.6906 198.076 38.6906 198.076 37.4971C197.576 37.2918 197.576 37.2918 197.065 37.0822C195.599 36.2846 194.455 35.3299 193.219 34.2289C174.6 17.766 148.182 10.8259 123.526 11.738C115.709 12.1797 108.336 14.0636 100.985 16.6122C100.239 16.8622 99.4939 17.1122 98.7259 17.3698C74.104 26.2422 55.5432 47.4821 44.6366 70.1624C32.7233 96.0575 30.183 125.218 40.3927 152.036C42.7768 157.964 45.8149 163.496 49.1388 168.967C49.6911 169.967 49.6911 169.967 50.3018 171.757C49.7338 172.012 49.7338 172.012 49.1544 172.273C37.7053 177.418 26.2899 182.631 14.8847 187.868C13.0002 186.148 12.0718 184.266 11.0682 181.976C10.8845 181.558 10.7008 181.14 10.5116 180.709C3.51429 164.411 -0.0438678 147.418 0.00040817 129.764C0.000943187 129.24 0.0014782 128.716 0.00202943 128.177C0.0313396 119.446 0.613146 111.064 2.67195 102.539C2.81935 101.924 2.96674 101.309 3.1186 100.675C7.00311 84.9875 13.7443 69.7207 23.4337 56.5919C23.8516 56.0204 24.2696 55.4489 24.7003 54.8601C32.8818 43.937 42.2295 34.236 53.3549 26.1596C53.9327 25.7312 54.5105 25.3027 55.1058 24.8613C101.414 -8.91361 170.5 -8.86804 215.026 28.6374Z" fill="white"/>
<path d="M68.6218 74.4951C72.3137 75.5971 75.7166 76.9258 79.1172 78.7094C79.7849 79.0578 79.7849 79.0578 80.4662 79.4132C84.9351 81.8007 89.0073 84.6029 93.0474 87.6228C93.5921 88.0281 94.1368 88.4335 94.698 88.8512C98.6004 91.8311 102.227 95.0893 105.871 98.3636C113.813 105.448 121.686 112.373 132.923 112.249C143.857 111.47 152.74 101.851 160.332 94.8579C167.597 88.383 183.293 74.4951 193.803 74.4951C193.48 87.2139 185.076 97.6931 176.14 106.195C174.157 107.947 172.068 109.564 169.988 111.202C148.888 128.277 144.888 148.148 140.944 173.773C137.386 196.876 137.386 196.876 133.35 206.965C129.366 206.671 129.366 206.671 128.068 205.319C127.205 203.92 126.815 202.817 126.456 201.226C126.325 200.646 126.194 200.066 126.059 199.468C125.921 198.816 125.782 198.164 125.64 197.492C125.488 196.793 125.336 196.093 125.18 195.372C123.169 185.88 121.67 176.285 120.12 166.713C117.226 149.036 113.909 130.431 100.375 117.458C99.9531 117.025 99.5312 116.592 99.0965 116.146C96.4392 113.438 93.5435 111.105 90.5595 108.75C79.4577 99.8279 70.867 89.9721 68.6218 75.6885C68.6218 75.2947 68.6218 74.9009 68.6218 74.4951Z" fill="white"/>
<path d="M216.396 132.969C217 133.559 217 133.559 217.617 134.162C210.383 157.365 196.099 180.268 173.652 192.031C164.93 196.374 155.942 199.085 146.172 199.8C147.228 191.497 148.514 183.227 149.858 174.964C150.047 173.796 150.233 172.627 150.418 171.459C150.682 169.79 150.954 168.123 151.229 166.457C151.307 165.952 151.386 165.448 151.466 164.929C152.681 157.732 158.13 154.084 163.859 150C179.017 139.428 197.286 131.128 216.396 132.969Z" fill="#008C1C"/>
<path d="M73.5287 136.695C83.8822 140.176 93.0867 145.698 101.566 152.41C103.372 153.859 103.372 153.859 105.196 154.988C108.501 157.309 109.815 159.42 110.525 163.253C110.653 164.031 110.653 164.031 110.782 164.824C110.88 165.372 110.979 165.92 111.08 166.485C111.39 168.241 111.685 169.999 111.977 171.758C112.174 172.91 112.372 174.062 112.569 175.213C113.056 178.081 113.526 180.951 113.988 183.823C114.273 185.594 114.562 187.365 114.852 189.135C115.036 190.269 115.219 191.403 115.403 192.536C115.489 193.062 115.574 193.588 115.663 194.129C115.741 194.614 115.818 195.099 115.898 195.599C115.967 196.024 116.035 196.449 116.106 196.886C116.252 198.014 116.252 198.014 116.252 199.804C99.4563 199.121 84.4627 190.948 72.286 180.112C71.6897 179.593 71.6897 179.593 71.0814 179.064C58.9708 167.929 47.7876 149.559 44.8073 133.569C52.2601 129.928 66.0463 134.316 73.5287 136.695Z" fill="#008C1C"/>
<path d="M204.183 182.5C206.373 183.31 208.383 184.263 210.423 185.386C211.036 185.722 211.65 186.059 212.282 186.406C212.934 186.766 213.587 187.126 214.258 187.497C214.932 187.868 215.606 188.239 216.3 188.621C218.369 189.76 220.436 190.903 222.502 192.047C223.126 192.392 223.749 192.737 224.391 193.093C226.116 194.048 227.84 195.005 229.563 195.963C230.329 196.389 230.329 196.389 231.111 196.823C234.191 198.544 237.218 200.33 240.211 202.191C229.6 213.597 212.043 218.836 196.855 220.69C180.375 221.393 161.027 221.577 146.172 213.529C147.938 212.134 149.625 211.236 151.725 210.401C152.346 210.151 152.967 209.9 153.606 209.642C154.276 209.374 154.947 209.106 155.637 208.83C181.847 198.76 181.847 198.76 204.183 182.5Z" fill="#008C1C"/>
<path d="M57.0196 180.71C57.7173 181.392 58.4127 182.076 59.098 182.77C62.6874 186.172 66.8813 188.8 71.217 191.19C71.7617 191.491 72.3064 191.792 72.8676 192.102C86.044 199.266 99.8233 205.087 113.809 210.546C113.809 211.136 113.809 211.727 113.809 212.336C89.4207 220.97 62.1182 222.331 38.0779 211.9C31.9235 209.002 26.1056 205.44 20.9919 200.998C22.7557 199.127 24.4793 197.923 26.7644 196.714C27.426 196.36 28.0877 196.006 28.7694 195.642C29.4774 195.268 30.1854 194.894 30.9148 194.509C32.4007 193.716 33.8846 192.919 35.3682 192.122C35.7451 191.92 36.1219 191.718 36.5102 191.509C42.1912 188.452 47.7698 185.22 53.3547 181.999C55.6302 180.71 55.6302 180.71 57.0196 180.71Z" fill="#008C1C"/>
<path d="M143.273 57.9561C147.544 60.7998 150.344 64.8518 151.667 69.7202C152.295 75.1188 152.3 80.5573 149.224 85.2347C148.903 85.7897 148.903 85.7897 148.575 86.3559C145.924 90.5215 141.429 93.1494 136.67 94.5C130.534 95.6609 125.156 94.6361 119.758 91.6284C115.487 88.7847 112.687 84.7327 111.364 79.8643C110.736 74.4657 110.731 69.0272 113.807 64.3498C114.021 63.9798 114.235 63.6098 114.456 63.2286C117.107 59.063 121.602 56.4351 126.361 55.0844C132.497 53.9236 137.875 54.9484 143.273 57.9561Z" fill="white"/>
</svg>
